<?xml version="1.0" encoding="UTF-8" standalone="no"?>
<!-- Created with Inkscape (http://www.inkscape.org/) -->

<svg
   width="220mm"
   height="154.99997mm"
   viewBox="0 0 220 154.99997"
   version="1.1"
   id="svg1"
   inkscape:version="1.4.3 (0d15f75, 2025-12-25)"
   sodipodi:docname="Book.svg"
   xml:space="preserve"
   xmlns:inkscape="http://www.inkscape.org/namespaces/inkscape"
   xmlns:sodipodi="http://sodipodi.sourceforge.net/DTD/sodipodi-0.dtd"
   xmlns="http://www.w3.org/2000/svg"
   xmlns:svg="http://www.w3.org/2000/svg"><sodipodi:namedview
     id="namedview1"
     pagecolor="#ffffff"
     bordercolor="#000000"
     borderopacity="0.25"
     inkscape:showpageshadow="2"
     inkscape:pageopacity="0.0"
     inkscape:pagecheckerboard="0"
     inkscape:deskcolor="#d1d1d1"
     inkscape:document-units="mm"
     inkscape:zoom="0.34183535"
     inkscape:cx="500.24083"
     inkscape:cy="372.98659"
     inkscape:window-width="1249"
     inkscape:window-height="836"
     inkscape:window-x="221"
     inkscape:window-y="34"
     inkscape:window-maximized="0"
     inkscape:current-layer="layer1"
     showgrid="false"
     inkscape:lockguides="false"
     inkscape:export-bgcolor="#ffffff00"><inkscape:grid
       type="axonomgrid"
       id="grid28"
       units="mm"
       originx="2434.9553"
       originy="562.05194"
       spacingx="1"
       spacingy="5.9000001"
       empcolor="#0099e5"
       empopacity="0.30196078"
       color="#0099e5"
       opacity="0.14901961"
       empspacing="1"
       dotted="false"
       gridanglex="15"
       gridanglez="50"
       enabled="true"
       visible="false" /><inkscape:grid
       id="grid1"
       units="mm"
       originx="-526.98267"
       originy="-1229.5306"
       spacingx="5.0000001"
       spacingy="5.0000001"
       empcolor="#0099e5"
       empopacity="0.30196078"
       color="#0099e5"
       opacity="0.14901961"
       empspacing="0"
       enabled="true"
       visible="true" /><inkscape:page
       x="6.4326327e-20"
       y="0"
       width="220.00002"
       height="154.99997"
       id="page3"
       margin="0"
       bleed="0" /></sodipodi:namedview><defs
     id="defs1" /><g
     inkscape:label="Layer 1"
     inkscape:groupmode="layer"
     id="layer1"
     transform="translate(-336.07736,-963.0115)"><rect
       style="fill:#ffffff;fill-opacity:1;stroke:#346586;stroke-width:4.79444;stroke-linecap:round;stroke-linejoin:miter;stroke-dasharray:none;stroke-opacity:1"
       id="rect21-5-0"
       width="215.20555"
       height="150.20555"
       x="338.47446"
       y="965.40869"
       ry="15.020554"
       inkscape:export-filename="../../Desktop/C6.svg"
       inkscape:export-xdpi="96"
       inkscape:export-ydpi="96" /><path
       id="rect22"
       style="fill:none;stroke:#346586;stroke-width:4;stroke-linecap:round"
       d="m 453.33024,1052.1774 h 9.55012 c 1.29839,0 2.34366,1.0452 2.34366,2.3436 v 16.244 c 0,1.2984 -1.04527,2.3437 -2.34366,2.3437 h -31.17571 c -1.29839,0 -2.34366,-1.0453 -2.34366,-2.3437 v -16.244 c 0,-1.2984 1.04527,-2.3436 2.34366,-2.3436 h 10.44476"
       sodipodi:nodetypes="cssssssssc"
       inkscape:export-filename="C6.png"
       inkscape:export-xdpi="96"
       inkscape:export-ydpi="96" /><g
       id="g24"
       transform="rotate(85.609704,406.11613,1012.6725)"><path
         style="fill:#ff6b2b;fill-opacity:1;stroke:#ff6b2b;stroke-width:4;stroke-linecap:round;stroke-dasharray:none;stroke-opacity:1"
         d="m 387.91552,990.54375 5.72146,16.95305 h 7.88794 l 5.74524,-17.02345 c 0,0 -4.10112,-0.8695 -8.92577,1.70365 -4.82465,2.57312 -10.42887,-1.63325 -10.42887,-1.63325"
         id="path17"
         sodipodi:nodetypes="ccccsc" /><path
         d="m 409.41286,984.12443 -7.88793,23.37237 h -7.88794 l -7.88792,-23.37237"
         fill="none"
         stroke="#346586"
         stroke-width="1.32292"
         stroke-linejoin="round"
         id="path1-3"
         style="stroke-width:4;stroke-linejoin:miter;stroke-dasharray:none"
         sodipodi:nodetypes="cccc" /></g><path
       d="m 446.38727,1029.3335 c 0.52917,3.9687 1.03498,7.6867 1.03498,10.3325"
       fill="none"
       stroke="#ff6b2b"
       stroke-width="1.05833"
       stroke-linecap="round"
       id="path3-5"
       sodipodi:nodetypes="cc"
       style="stroke-width:1.358;stroke-dasharray:none" /><circle
       cx="452.9379"
       cy="1023.046"
       r="1.765501"
       fill="#ff6b2b"
       id="circle3-3"
       style="stroke-width:0.5885" /><circle
       cx="438.49756"
       cy="1024.1205"
       r="1.1770006"
       fill="#ff6b2b"
       id="circle4"
       style="stroke-width:0.5885" /><circle
       cx="450.99344"
       cy="1030.2411"
       r="1.1770006"
       fill="#ff6b2b"
       id="circle4-4"
       style="stroke-width:0.5885" /><ellipse
       cx="447.49158"
       cy="1044.0137"
       fill="#ff6b2b"
       id="circle5-5"
       style="stroke-width:0.467836"
       rx="0.92236662"
       ry="0.94917023" /><rect
       x="395.79816"
       y="1036.8225"
       width="15.434873"
       height="51.640961"
       rx="1.0289915"
       fill="none"
       stroke="#346586"
       stroke-width="1.32292"
       id="rect5-4"
       style="stroke-width:4;stroke-dasharray:none" /><rect
       x="484.24661"
       y="1036.8225"
       width="15.434873"
       height="51.640961"
       rx="1.0289915"
       fill="none"
       stroke="#346586"
       stroke-width="1.32292"
       id="rect5-4-5"
       style="stroke-width:4;stroke-dasharray:none" /><path
       style="fill:#ff6b2b;fill-opacity:1;stroke:#346586;stroke-width:4;stroke-linecap:round;stroke-dasharray:none;stroke-opacity:1"
       d="m 411.23304,1062.643 h 18.12795"
       id="path12" /><path
       style="fill:#ff6b2b;fill-opacity:1;stroke:#346586;stroke-width:4;stroke-linecap:round;stroke-dasharray:none;stroke-opacity:1"
       d="m 465.22402,1062.643 h 19.02259"
       id="path13" /><path
       style="fill:#ff6b2b;fill-opacity:1;stroke:#346586;stroke-width:4;stroke-linecap:round;stroke-dasharray:none;stroke-opacity:1"
       d="m 411.23304,1088.4635 h 73.01357"
       id="path14" /><path
       style="fill:none;fill-opacity:1;stroke:#346586;stroke-width:4;stroke-linecap:round;stroke-dasharray:none;stroke-opacity:1"
       d="m 411.23304,1036.8225 h 30.91637 v 15.3547"
       id="path15" /><path
       style="fill:none;fill-opacity:1;stroke:#346586;stroke-width:4;stroke-linecap:round;stroke-dasharray:none;stroke-opacity:1"
       d="m 484.24661,1036.8225 h -30.91637 v 15.3547"
       id="path15-0" /><path
       id="rect5-4-3"
       style="fill:none;stroke:#ff6b2b;stroke-width:3.20401"
       d="m 461.76714,1057.8523 1e-5,11.6965 h -28.80538 v -9.5164 c 0,0 1.91297,-4.1228 10.67795,-0.9872 3.03697,1.0864 8.8418,-1.0381 11.13286,-1.2583 4.09413,-0.3935 6.99456,0.065 6.99456,0.065 z"
       sodipodi:nodetypes="ccccsscc" /><path
       style="fill:#ff6b2b;fill-opacity:1;stroke:#ff6b2b;stroke-width:1.44139;stroke-linecap:butt;stroke-linejoin:round;stroke-dasharray:none;stroke-opacity:1"
       d="m 429.3433,1006.5504 1.25844,3.2937 c -0.0208,0.2702 4.06403,0.7258 7.14494,2.8858 2.53393,1.7766 4.37086,4.263 5.74578,7.1609 0.72293,1.5237 1.03355,2.4268 2.88351,9.5029 -0.2324,-2.5913 -1.09125,-6.5903 -2.2021,-9.7523 -0.71964,-2.0484 -1.70059,-3.7766 -2.15922,-4.4379 -5.05834,-7.294 -9.23994,-5.981 -12.67135,-8.6531 z"
       id="path24"
       sodipodi:nodetypes="ccsscssc" /></g></svg>
