<?xml version="1.0" encoding="UTF-8" standalone="no"?>
<!-- Created with Inkscape (http://www.inkscape.org/) -->

<svg
   width="219.99998mm"
   height="155.00011mm"
   viewBox="0 0 219.99999 155.00011"
   version="1.1"
   id="svg1"
   inkscape:version="1.4.3 (0d15f75, 2025-12-25)"
   sodipodi:docname="C7.svg"
   xml:space="preserve"
   xmlns:inkscape="http://www.inkscape.org/namespaces/inkscape"
   xmlns:sodipodi="http://sodipodi.sourceforge.net/DTD/sodipodi-0.dtd"
   xmlns="http://www.w3.org/2000/svg"
   xmlns:svg="http://www.w3.org/2000/svg"><sodipodi:namedview
     id="namedview1"
     pagecolor="#ffffff"
     bordercolor="#000000"
     borderopacity="0.25"
     inkscape:showpageshadow="2"
     inkscape:pageopacity="0.0"
     inkscape:pagecheckerboard="0"
     inkscape:deskcolor="#d1d1d1"
     inkscape:document-units="mm"
     inkscape:zoom="0.34183535"
     inkscape:cx="498.77814"
     inkscape:cy="372.98659"
     inkscape:window-width="1249"
     inkscape:window-height="836"
     inkscape:window-x="221"
     inkscape:window-y="34"
     inkscape:window-maximized="0"
     inkscape:current-layer="layer1"
     showgrid="false"
     inkscape:lockguides="false"
     inkscape:export-bgcolor="#ffffff00"><inkscape:grid
       type="axonomgrid"
       id="grid28"
       units="mm"
       originx="2684.9746"
       originy="562.72449"
       spacingx="1"
       spacingy="5.9000001"
       empcolor="#0099e5"
       empopacity="0.30196078"
       color="#0099e5"
       opacity="0.14901961"
       empspacing="1"
       dotted="false"
       gridanglex="15"
       gridanglez="50"
       enabled="true"
       visible="false" /><inkscape:grid
       id="grid1"
       units="mm"
       originx="-276.96338"
       originy="-1228.8582"
       spacingx="5.0000001"
       spacingy="5.0000001"
       empcolor="#0099e5"
       empopacity="0.30196078"
       color="#0099e5"
       opacity="0.14901961"
       empspacing="0"
       enabled="true"
       visible="true" /><inkscape:page
       x="0"
       y="7.2060143e-20"
       width="219.99998"
       height="155.00011"
       id="page3"
       margin="0"
       bleed="0" /></sodipodi:namedview><defs
     id="defs1" /><g
     inkscape:label="Layer 1"
     inkscape:groupmode="layer"
     id="layer1"
     transform="translate(-86.058017,-962.33893)"><rect
       style="fill:none;fill-opacity:1;stroke:#346586;stroke-width:4.79444;stroke-linecap:round;stroke-linejoin:miter;stroke-dasharray:none;stroke-opacity:1"
       id="rect21-5-2"
       width="215.20555"
       height="150.20555"
       x="88.455086"
       y="964.73633"
       ry="15.020554"
       inkscape:export-filename="../../Desktop/C7.svg"
       inkscape:export-xdpi="96"
       inkscape:export-ydpi="96" /><path
       id="rect22-9"
       style="fill:none;stroke:#346586;stroke-width:4;stroke-linecap:round"
       d="m 158.55057,1045.372 -2e-4,12.8242 c -2e-5,1.2984 -1.0452,2.3436 -2.3436,2.3436 h -16.244 c -1.2984,0 -2.3437,-1.0452 -2.3437,-2.3436 v -31.1757 c 0,-1.2984 1.0453,-2.3437 2.3437,-2.3437 h 16.244 c 1.2984,0 2.34358,1.0453 2.3436,2.3437 l 2e-4,13.6252"
       sodipodi:nodetypes="cssssssssc" /><path
       id="rect5-4-6"
       style="fill:none;stroke:#346586;stroke-width:4"
       transform="rotate(90)"
       d="m 1006.5489,-173.90527 v 51.641 z"
       sodipodi:nodetypes="sss" /><path
       id="rect5-4-6-5"
       style="fill:none;stroke:#346586;stroke-width:4"
       d="m 173.90527,1079.5624 h -51.641 z"
       sodipodi:nodetypes="sss" /><path
       style="fill:#ff6b2b;fill-opacity:1;stroke:#346586;stroke-width:4;stroke-linecap:round;stroke-dasharray:none;stroke-opacity:1"
       d="m 148.08477,1006.5489 v 18.1279"
       id="path12-9" /><path
       style="fill:#ff6b2b;fill-opacity:1;stroke:#346586;stroke-width:4;stroke-linecap:round;stroke-dasharray:none;stroke-opacity:1"
       d="m 148.08477,1060.5398 v 19.0226"
       id="path13-2" /><path
       style="fill:#ff6b2b;fill-opacity:1;stroke:#346586;stroke-width:4;stroke-linecap:round;stroke-dasharray:none;stroke-opacity:1"
       d="m 122.26427,1006.5489 v 73.0135"
       id="path14-9" /><path
       style="fill:none;fill-opacity:1;stroke:#346586;stroke-width:4;stroke-linecap:round;stroke-dasharray:none;stroke-opacity:1"
       d="m 173.90527,1006.5489 v 34.0968 h -15.3547"
       id="path15-6"
       sodipodi:nodetypes="ccc" /><path
       style="fill:none;fill-opacity:1;stroke:#346586;stroke-width:4;stroke-linecap:round;stroke-dasharray:none;stroke-opacity:1"
       d="m 173.90527,1079.5624 v -34.1904 h -15.3547"
       id="path15-0-0"
       sodipodi:nodetypes="ccc" /><path
       id="rect5-4-3-2"
       style="fill:none;stroke:#ff6b2b;stroke-width:3.40629"
       d="m 141.53342,1056.9819 h 13.31347 v -28.6032 h -10.83198 c 0,0 -4.69275,1.8996 -1.12368,10.6029 1.23659,3.0157 -1.18161,8.7798 -1.43225,11.0548 -0.4479,4.0654 0.074,6.9455 0.074,6.9455 z"
       sodipodi:nodetypes="ccccsscc" /><line
       x1="156.55057"
       y1="1042.5641"
       x2="177.56021"
       y2="1042.5641"
       stroke="#ff6b2b"
       stroke-width="1.42721"
       id="line3-88-3" /><path
       d="m 177.132,1039.8707 -4.30909,2.6932 4.30909,2.6931"
       fill="none"
       stroke="#ff6b2b"
       stroke-width="1.61588"
       stroke-linejoin="round"
       id="path4-5-0"
       style="stroke-width:2.5;stroke-dasharray:none" /><path
       id="rect5-2-5"
       style="fill:none;stroke:#346586;stroke-width:4"
       transform="rotate(90)"
       d="m 1029.8707,-233.09697 v -22.6991 c 0,-0.93764 0.7549,-1.69249 1.6925,-1.69249 h 22.0023 c 0.9376,0 1.6924,0.75485 1.6924,1.69249 v 53.55071 c 0,0.93764 -0.7548,1.69248 -1.6924,1.69248 h -5.5685 m -10.7818,0 h -5.652 c -0.9376,0 -1.6925,-0.75484 -1.6925,-1.69248 v -22.96437"
       sodipodi:nodetypes="cssssssccssc" /><path
       id="rect5-2-5-0"
       style="fill:none;stroke:#346586;stroke-width:4"
       d="m 232.96457,1015.6943 20.93378,-0.058 c 1.98905,-0.01 3.59036,1.6013 3.59036,3.5903 v 46.6746 c 0,1.9891 -1.6013,3.5904 -3.59036,3.5904 h -49.75497 c -1.98905,0 -3.59035,-1.6013 -3.59035,-3.5904 v -17.9042 m 0,-10.7818 v -17.9886 c 0,-1.989 1.6013,-3.5903 3.59035,-3.5903 l 20.93394,-0.058"
       sodipodi:nodetypes="cssssssccssc" /><circle
       cx="223.14027"
       cy="996.05151"
       r="1.765501"
       fill="#ff6b2b"
       id="circle3-3-7"
       style="stroke-width:0.5885" /><circle
       cx="226.26747"
       cy="999.38477"
       r="1.1770006"
       fill="#ff6b2b"
       id="circle4-6"
       style="stroke-width:0.5885" /><circle
       cx="223.32854"
       cy="1000.454"
       r="1.1770006"
       fill="#ff6b2b"
       id="circle4-4-8"
       style="stroke-width:0.5885" /><circle
       cx="230.77071"
       cy="1000.7484"
       r="1.765501"
       fill="#ff6b2b"
       id="circle3-3-7-2"
       style="stroke-width:0.5885" /><circle
       cx="234.57152"
       cy="1000.5657"
       r="1.1770006"
       fill="#ff6b2b"
       id="circle4-6-8"
       style="stroke-width:0.5885" /><circle
       cx="227.00214"
       cy="1003.038"
       r="1.1770006"
       fill="#ff6b2b"
       id="circle4-4-8-0"
       style="stroke-width:0.5885" /><path
       style="fill:none;fill-opacity:1;fill-rule:evenodd;stroke:#346586;stroke-width:4;stroke-linecap:round;stroke-linejoin:round;stroke-dasharray:none;stroke-opacity:1"
       d="m 217.79711,999.73474 7.41262,15.95386 v 14.1821 m 7.88724,10e-5 -1e-5,-14.0676 7.96451,-16.11847"
       id="path39"
       sodipodi:nodetypes="cccccc" /><rect
       x="1037.1776"
       y="-247.69923"
       width="10.772538"
       height="70.566994"
       rx="1.6158807"
       fill="none"
       stroke="#ff6b2b"
       stroke-width="2.1545"
       id="rect4-3-9"
       transform="rotate(90)"
       style="stroke-width:2.49999;stroke-dasharray:none" /><circle
       cx="669.80762"
       cy="774.8075"
       r="1.765501"
       fill="#ff6b2b"
       id="circle3-3-7-3"
       style="stroke-width:0.5885"
       transform="rotate(27.470877)" /><circle
       cx="667.05585"
       cy="777.62543"
       r="1.1770006"
       fill="#ff6b2b"
       id="circle4-6-5"
       style="stroke-width:0.5885"
       transform="rotate(27.470877)" /><circle
       cx="664.11694"
       cy="778.69464"
       r="1.1770006"
       fill="#ff6b2b"
       id="circle4-4-8-9"
       style="stroke-width:0.5885"
       transform="rotate(27.470877)" /><circle
       cx="226.05452"
       cy="1006.551"
       r="1.765501"
       fill="#ff6b2b"
       id="circle3-3-7-8"
       style="stroke-width:0.5885" /><circle
       cx="229.76178"
       cy="1007.1166"
       r="1.1770006"
       fill="#ff6b2b"
       id="circle4-6-4"
       style="stroke-width:0.5885" /><circle
       cx="233.59015"
       cy="1004.1245"
       r="1.1770006"
       fill="#ff6b2b"
       id="circle4-6-4-9"
       style="stroke-width:0.5885" /><circle
       cx="230.14368"
       cy="1004.1634"
       r="1.1770006"
       fill="#ff6b2b"
       id="circle4-4-8-01"
       style="stroke-width:0.5885" /><circle
       cx="227.52855"
       cy="1010.1205"
       r="1.1770006"
       fill="#ff6b2b"
       id="circle4-6-4-3"
       style="stroke-width:0.5885" /><circle
       cx="232.01732"
       cy="1009.1558"
       r="1.1770006"
       fill="#ff6b2b"
       id="circle4-6-4-36"
       style="stroke-width:0.5885" /><circle
       cx="229.37148"
       cy="1013.6537"
       r="1.1770006"
       fill="#ff6b2b"
       id="circle4-6-4-2"
       style="stroke-width:0.5885" /><circle
       cx="223.81523"
       cy="1003.335"
       r="1.1770006"
       fill="#ff6b2b"
       id="circle4-6-4-0"
       style="stroke-width:0.5885" /><circle
       cx="229.1069"
       cy="1017.6224"
       r="1.1770006"
       fill="#ff6b2b"
       id="circle4-6-4-90"
       style="stroke-width:0.5885" /><circle
       cx="228.84232"
       cy="1021.8558"
       r="1.1770006"
       fill="#ff6b2b"
       id="circle4-6-4-21"
       style="stroke-width:0.5885" /><circle
       cx="229.1069"
       cy="1025.5599"
       r="1.1770006"
       fill="#ff6b2b"
       id="circle4-6-4-97"
       style="stroke-width:0.5885" /><circle
       cx="229.1069"
       cy="1030.3225"
       r="1.1770006"
       fill="#ff6b2b"
       id="circle4-6-4-1"
       style="stroke-width:0.5885" /></g></svg>
